<svg xmlns="http://www.w3.org/2000/svg">
  <symbol viewBox="0 0 24 25" id="facebook">
			<g clip-path="url(#f)">
				<path d="M24 12.573C24 5.905 18.627.5 12 .5S0 5.905 0 12.573C0 18.6 4.388 23.594 10.125 24.5v-8.437H7.078v-3.49h3.047v-2.66c0-3.025 1.791-4.697 4.533-4.697 1.313 0 2.686.236 2.686.236v2.971H15.83c-1.491 0-1.956.93-1.956 1.886v2.264h3.328l-.532 3.49h-2.796V24.5C19.612 23.594 24 18.6 24 12.573Z"/>
			</g>
			<defs>
				<clipPath id="f">
					<path d="M0 .5h24v24H0z"/>
				</clipPath>
			</defs>
		</symbol>
		<symbol viewBox="0 0 24 24" id="message">
		  <path stroke="#000" stroke-linecap="round" stroke-linejoin="round" stroke-width="2" d="M19.4 18a5.5 5.5 0 1 0-4.9 3H21s-1-1-1.586-2.97M18.85 12a7.5 7.5 0 1 0-14.423 1C5.5 16.012 3 18 3 18h6.5"/>
		</symbol>
		<symbol viewBox="0 0 21 47" id="slash">
      <path fill-rule="evenodd" clip-rule="evenodd" d="M15.1752 0H21L5.82482 47H0L15.1752 0Z"/>
    </symbol>
</svg>